STARTFONT 2.1
COMMENT Font holsans10 based on:
COMMENT   -mdk-helvetica-medium-r-normal--10-100-75-75-p-56-iso8859-7
COMMENT which is  Copyright (c) 1999 MandrakeSoft, under the GPL.
COMMENT 
COMMENT Adapted for the ProofPower mathematical character set by Rob Arthan.
COMMENT Adaptations for ProofPower Copyright (c) 2002 Lemma 1 Ltd. under the GPL.
COMMENT 
COMMENT 
COMMENT 
FONT holsans10
SIZE 12 90 90
FONTBOUNDINGBOX 14 13 0 -2
STARTPROPERTIES 11
POINT_SIZE 120
PIXEL_SIZE 15
RESOLUTION_X 90
RESOLUTION_Y 90
FONT_ASCENT 12
FONT_DESCENT 3
AVERAGE_WIDTH 100
SPACING "P"
FONT "holsans10"
FOUNDRY "hol"
_XMBDFED_INFO "Edited with xmbdfed 4.5."
ENDPROPERTIES
CHARS 223
STARTCHAR space
ENCODING 32
SWIDTH 200 0
DWIDTH 3 0
BBX 0 0 0 0
BITMAP
ENDCHAR
STARTCHAR exclam
ENCODING 33
SWIDTH 200 0
DWIDTH 3 0
BBX 1 8 1 0
BITMAP
80
80
80
80
80
80
00
80
ENDCHAR
STARTCHAR quotedbl
ENCODING 34
SWIDTH 266 0
DWIDTH 4 0
BBX 3 2 1 6
BITMAP
A0
A0
ENDCHAR
STARTCHAR numbersign
ENCODING 35
SWIDTH 400 0
DWIDTH 6 0
BBX 6 7 0 0
BITMAP
28
28
7C
28
F8
50
50
ENDCHAR
STARTCHAR dollar
ENCODING 36
SWIDTH 400 0
DWIDTH 6 0
BBX 5 9 0 -1
BITMAP
20
70
A8
A0
70
28
A8
70
20
ENDCHAR
STARTCHAR percent
ENCODING 37
SWIDTH 600 0
DWIDTH 9 0
BBX 8 8 0 0
BITMAP
64
94
68
08
10
16
29
26
ENDCHAR
STARTCHAR ampersand
ENCODING 38
SWIDTH 533 0
DWIDTH 8 0
BBX 6 8 1 0
BITMAP
20
50
50
60
A4
98
98
64
ENDCHAR
STARTCHAR apostrophe
ENCODING 39
SWIDTH 200 0
DWIDTH 3 0
BBX 2 3 1 5
BITMAP
40
40
80
ENDCHAR
STARTCHAR parenleft
ENCODING 40
SWIDTH 266 0
DWIDTH 4 0
BBX 3 10 0 -2
BITMAP
20
40
40
80
80
80
80
40
40
20
ENDCHAR
STARTCHAR parenright
ENCODING 41
SWIDTH 266 0
DWIDTH 4 0
BBX 3 10 1 -2
BITMAP
80
40
40
20
20
20
20
40
40
80
ENDCHAR
STARTCHAR asterisk
ENCODING 42
SWIDTH 266 0
DWIDTH 4 0
BBX 3 3 0 5
BITMAP
A0
40
A0
ENDCHAR
STARTCHAR plus
ENCODING 43
SWIDTH 400 0
DWIDTH 6 0
BBX 5 5 0 1
BITMAP
20
20
F8
20
20
ENDCHAR
STARTCHAR comma
ENCODING 44
SWIDTH 200 0
DWIDTH 3 0
BBX 2 3 0 -2
BITMAP
40
40
80
ENDCHAR
STARTCHAR minus
ENCODING 45
SWIDTH 466 0
DWIDTH 7 0
BBX 6 1 1 3
BITMAP
FC
ENDCHAR
STARTCHAR period
ENCODING 46
SWIDTH 200 0
DWIDTH 3 0
BBX 1 1 1 0
BITMAP
80
ENDCHAR
STARTCHAR slash
ENCODING 47
SWIDTH 200 0
DWIDTH 3 0
BBX 3 8 0 0
BITMAP
20
20
40
40
40
40
80
80
ENDCHAR
STARTCHAR 0
ENCODING 48
SWIDTH 400 0
DWIDTH 6 0
BBX 5 8 0 0
BITMAP
70
88
88
88
88
88
88
70
ENDCHAR
STARTCHAR 1
ENCODING 49
SWIDTH 400 0
DWIDTH 6 0
BBX 2 8 1 0
BITMAP
40
C0
40
40
40
40
40
40
ENDCHAR
STARTCHAR 2
ENCODING 50
SWIDTH 400 0
DWIDTH 6 0
BBX 5 8 0 0
BITMAP
70
88
08
08
30
40
80
F8
ENDCHAR
STARTCHAR 3
ENCODING 51
SWIDTH 400 0
DWIDTH 6 0
BBX 5 8 0 0
BITMAP
70
88
08
30
08
08
88
70
ENDCHAR
STARTCHAR 4
ENCODING 52
SWIDTH 400 0
DWIDTH 6 0
BBX 5 8 0 0
BITMAP
10
30
50
50
90
F8
10
10
ENDCHAR
STARTCHAR 5
ENCODING 53
SWIDTH 400 0
DWIDTH 6 0
BBX 5 8 0 0
BITMAP
F8
80
80
F0
08
08
88
70
ENDCHAR
STARTCHAR 6
ENCODING 54
SWIDTH 400 0
DWIDTH 6 0
BBX 5 8 0 0
BITMAP
70
88
80
B0
C8
88
88
70
ENDCHAR
STARTCHAR 7
ENCODING 55
SWIDTH 400 0
DWIDTH 6 0
BBX 5 8 0 0
BITMAP
F8
08
10
10
20
20
40
40
ENDCHAR
STARTCHAR 8
ENCODING 56
SWIDTH 400 0
DWIDTH 6 0
BBX 5 8 0 0
BITMAP
70
88
88
70
88
88
88
70
ENDCHAR
STARTCHAR 9
ENCODING 57
SWIDTH 400 0
DWIDTH 6 0
BBX 5 8 0 0
BITMAP
70
88
88
98
68
08
88
70
ENDCHAR
STARTCHAR colon
ENCODING 58
SWIDTH 200 0
DWIDTH 3 0
BBX 1 6 1 0
BITMAP
80
00
00
00
00
80
ENDCHAR
STARTCHAR semicolon
ENCODING 59
SWIDTH 200 0
DWIDTH 3 0
BBX 2 8 0 -2
BITMAP
40
00
00
00
00
40
40
80
ENDCHAR
STARTCHAR less
ENCODING 60
SWIDTH 333 0
DWIDTH 5 0
BBX 4 7 1 0
BITMAP
10
20
40
80
40
20
10
ENDCHAR
STARTCHAR equal
ENCODING 61
SWIDTH 666 0
DWIDTH 10 0
BBX 8 3 0 2
BITMAP
FF
00
FF
ENDCHAR
STARTCHAR greater
ENCODING 62
SWIDTH 266 0
DWIDTH 4 0
BBX 4 7 1 0
BITMAP
80
40
20
10
20
40
80
ENDCHAR
STARTCHAR question
ENCODING 63
SWIDTH 400 0
DWIDTH 6 0
BBX 4 8 1 0
BITMAP
60
90
10
20
40
40
00
40
ENDCHAR
STARTCHAR at
ENCODING 64
SWIDTH 733 0
DWIDTH 11 0
BBX 10 10 0 -2
BITMAP
1F00
2080
4D40
9240
A240
A480
A480
9B00
4000
3E00
ENDCHAR
STARTCHAR A
ENCODING 65
SWIDTH 466 0
DWIDTH 7 0
BBX 7 8 0 0
BITMAP
10
10
28
28
44
7C
82
82
ENDCHAR
STARTCHAR B
ENCODING 66
SWIDTH 466 0
DWIDTH 7 0
BBX 5 8 1 0
BITMAP
F0
88
88
F0
88
88
88
F0
ENDCHAR
STARTCHAR C
ENCODING 67
SWIDTH 533 0
DWIDTH 8 0
BBX 6 8 1 0
BITMAP
78
84
80
80
80
80
84
78
ENDCHAR
STARTCHAR D
ENCODING 68
SWIDTH 533 0
DWIDTH 8 0
BBX 6 8 1 0
BITMAP
F0
88
84
84
84
84
88
F0
ENDCHAR
STARTCHAR E
ENCODING 69
SWIDTH 466 0
DWIDTH 7 0
BBX 5 8 1 0
BITMAP
F8
80
80
F8
80
80
80
F8
ENDCHAR
STARTCHAR F
ENCODING 70
SWIDTH 400 0
DWIDTH 6 0
BBX 5 8 1 0
BITMAP
F8
80
80
F0
80
80
80
80
ENDCHAR
STARTCHAR G
ENCODING 71
SWIDTH 533 0
DWIDTH 8 0
BBX 6 8 1 0
BITMAP
78
84
80
80
8C
84
8C
74
ENDCHAR
STARTCHAR H
ENCODING 72
SWIDTH 533 0
DWIDTH 8 0
BBX 6 8 1 0
BITMAP
84
84
84
FC
84
84
84
84
ENDCHAR
STARTCHAR I
ENCODING 73
SWIDTH 200 0
DWIDTH 3 0
BBX 1 8 1 0
BITMAP
80
80
80
80
80
80
80
80
ENDCHAR
STARTCHAR J
ENCODING 74
SWIDTH 333 0
DWIDTH 5 0
BBX 4 8 0 0
BITMAP
10
10
10
10
10
10
90
60
ENDCHAR
STARTCHAR K
ENCODING 75
SWIDTH 466 0
DWIDTH 7 0
BBX 5 8 1 0
BITMAP
88
90
A0
E0
90
90
88
88
ENDCHAR
STARTCHAR L
ENCODING 76
SWIDTH 400 0
DWIDTH 6 0
BBX 4 8 1 0
BITMAP
80
80
80
80
80
80
80
F0
ENDCHAR
STARTCHAR M
ENCODING 77
SWIDTH 600 0
DWIDTH 9 0
BBX 7 8 1 0
BITMAP
82
C6
C6
AA
AA
92
92
92
ENDCHAR
STARTCHAR N
ENCODING 78
SWIDTH 533 0
DWIDTH 8 0
BBX 6 8 1 0
BITMAP
C4
C4
A4
A4
94
94
8C
8C
ENDCHAR
STARTCHAR O
ENCODING 79
SWIDTH 533 0
DWIDTH 8 0
BBX 6 8 1 0
BITMAP
78
84
84
84
84
84
84
78
ENDCHAR
STARTCHAR P
ENCODING 80
SWIDTH 466 0
DWIDTH 7 0
BBX 5 8 1 0
BITMAP
F0
88
88
F0
80
80
80
80
ENDCHAR
STARTCHAR Q
ENCODING 81
SWIDTH 533 0
DWIDTH 8 0
BBX 7 9 1 -1
BITMAP
78
84
84
84
84
94
8C
7C
02
ENDCHAR
STARTCHAR R
ENCODING 82
SWIDTH 466 0
DWIDTH 7 0
BBX 5 8 1 0
BITMAP
F0
88
88
F0
88
88
88
88
ENDCHAR
STARTCHAR S
ENCODING 83
SWIDTH 466 0
DWIDTH 7 0
BBX 5 8 1 0
BITMAP
70
88
80
70
08
88
88
70
ENDCHAR
STARTCHAR T
ENCODING 84
SWIDTH 333 0
DWIDTH 5 0
BBX 5 8 0 0
BITMAP
F8
20
20
20
20
20
20
20
ENDCHAR
STARTCHAR U
ENCODING 85
SWIDTH 533 0
DWIDTH 8 0
BBX 6 8 1 0
BITMAP
84
84
84
84
84
84
84
78
ENDCHAR
STARTCHAR V
ENCODING 86
SWIDTH 466 0
DWIDTH 7 0
BBX 7 8 0 0
BITMAP
82
82
44
44
44
28
28
10
ENDCHAR
STARTCHAR W
ENCODING 87
SWIDTH 600 0
DWIDTH 9 0
BBX 9 8 0 0
BITMAP
8880
8880
4900
4900
5500
2200
2200
2200
ENDCHAR
STARTCHAR X
ENCODING 88
SWIDTH 466 0
DWIDTH 7 0
BBX 5 8 1 0
BITMAP
88
88
50
20
50
50
88
88
ENDCHAR
STARTCHAR Y
ENCODING 89
SWIDTH 466 0
DWIDTH 7 0
BBX 7 8 0 0
BITMAP
82
44
44
28
10
10
10
10
ENDCHAR
STARTCHAR Z
ENCODING 90
SWIDTH 466 0
DWIDTH 7 0
BBX 5 8 1 0
BITMAP
F8
08
10
20
20
40
80
F8
ENDCHAR
STARTCHAR bracketleft
ENCODING 91
SWIDTH 200 0
DWIDTH 3 0
BBX 2 10 1 -2
BITMAP
C0
80
80
80
80
80
80
80
80
C0
ENDCHAR
STARTCHAR backslash
ENCODING 92
SWIDTH 200 0
DWIDTH 3 0
BBX 3 8 0 0
BITMAP
80
80
40
40
40
40
20
20
ENDCHAR
STARTCHAR bracketright
ENCODING 93
SWIDTH 200 0
DWIDTH 3 0
BBX 2 10 0 -2
BITMAP
C0
40
40
40
40
40
40
40
40
C0
ENDCHAR
STARTCHAR asciicircum
ENCODING 94
SWIDTH 400 0
DWIDTH 6 0
BBX 5 5 0 3
BITMAP
20
20
50
50
88
ENDCHAR
STARTCHAR underscore
ENCODING 95
SWIDTH 400 0
DWIDTH 6 0
BBX 6 1 0 -2
BITMAP
FC
ENDCHAR
STARTCHAR grave
ENCODING 96
SWIDTH 200 0
DWIDTH 3 0
BBX 2 3 0 5
BITMAP
40
80
80
ENDCHAR
STARTCHAR a
ENCODING 97
SWIDTH 333 0
DWIDTH 5 0
BBX 5 6 0 0
BITMAP
E0
10
70
90
90
68
ENDCHAR
STARTCHAR b
ENCODING 98
SWIDTH 400 0
DWIDTH 6 0
BBX 5 8 0 0
BITMAP
80
80
B0
C8
88
88
C8
B0
ENDCHAR
STARTCHAR c
ENCODING 99
SWIDTH 333 0
DWIDTH 5 0
BBX 4 6 0 0
BITMAP
60
90
80
80
90
60
ENDCHAR
STARTCHAR d
ENCODING 100
SWIDTH 400 0
DWIDTH 6 0
BBX 5 8 0 0
BITMAP
08
08
68
98
88
88
98
68
ENDCHAR
STARTCHAR e
ENCODING 101
SWIDTH 333 0
DWIDTH 5 0
BBX 4 6 0 0
BITMAP
60
90
F0
80
90
60
ENDCHAR
STARTCHAR f
ENCODING 102
SWIDTH 266 0
DWIDTH 4 0
BBX 4 8 0 0
BITMAP
30
40
E0
40
40
40
40
40
ENDCHAR
STARTCHAR g
ENCODING 103
SWIDTH 400 0
DWIDTH 6 0
BBX 5 8 0 -2
BITMAP
68
98
88
88
98
68
08
70
ENDCHAR
STARTCHAR h
ENCODING 104
SWIDTH 400 0
DWIDTH 6 0
BBX 5 8 0 0
BITMAP
80
80
B0
C8
88
88
88
88
ENDCHAR
STARTCHAR i
ENCODING 105
SWIDTH 133 0
DWIDTH 2 0
BBX 1 8 0 0
BITMAP
80
00
80
80
80
80
80
80
ENDCHAR
STARTCHAR j
ENCODING 106
SWIDTH 133 0
DWIDTH 2 0
BBX 1 9 0 -1
BITMAP
80
00
80
80
80
80
80
80
80
ENDCHAR
STARTCHAR k
ENCODING 107
SWIDTH 333 0
DWIDTH 5 0
BBX 4 8 0 0
BITMAP
80
80
90
A0
C0
A0
90
90
ENDCHAR
STARTCHAR l
ENCODING 108
SWIDTH 133 0
DWIDTH 2 0
BBX 1 8 0 0
BITMAP
80
80
80
80
80
80
80
80
ENDCHAR
STARTCHAR m
ENCODING 109
SWIDTH 533 0
DWIDTH 8 0
BBX 7 6 0 0
BITMAP
EC
92
92
92
92
92
ENDCHAR
STARTCHAR n
ENCODING 110
SWIDTH 400 0
DWIDTH 6 0
BBX 5 6 0 0
BITMAP
B0
C8
88
88
88
88
ENDCHAR
STARTCHAR o
ENCODING 111
SWIDTH 400 0
DWIDTH 6 0
BBX 5 6 0 0
BITMAP
70
88
88
88
88
70
ENDCHAR
STARTCHAR p
ENCODING 112
SWIDTH 400 0
DWIDTH 6 0
BBX 5 8 0 -2
BITMAP
B0
C8
88
88
C8
B0
80
80
ENDCHAR
STARTCHAR q
ENCODING 113
SWIDTH 400 0
DWIDTH 6 0
BBX 5 8 0 -2
BITMAP
68
98
88
88
98
68
08
08
ENDCHAR
STARTCHAR r
ENCODING 114
SWIDTH 266 0
DWIDTH 4 0
BBX 3 6 0 0
BITMAP
A0
C0
80
80
80
80
ENDCHAR
STARTCHAR s
ENCODING 115
SWIDTH 333 0
DWIDTH 5 0
BBX 4 6 0 0
BITMAP
60
90
60
10
90
60
ENDCHAR
STARTCHAR t
ENCODING 116
SWIDTH 266 0
DWIDTH 4 0
BBX 3 8 0 0
BITMAP
40
40
E0
40
40
40
40
60
ENDCHAR
STARTCHAR u
ENCODING 117
SWIDTH 333 0
DWIDTH 5 0
BBX 4 6 0 0
BITMAP
90
90
90
90
90
70
ENDCHAR
STARTCHAR v
ENCODING 118
SWIDTH 400 0
DWIDTH 6 0
BBX 5 6 0 0
BITMAP
88
88
50
50
20
20
ENDCHAR
STARTCHAR w
ENCODING 119
SWIDTH 533 0
DWIDTH 8 0
BBX 7 6 0 0
BITMAP
92
92
54
54
28
28
ENDCHAR
STARTCHAR x
ENCODING 120
SWIDTH 400 0
DWIDTH 6 0
BBX 5 6 0 0
BITMAP
88
50
20
50
88
88
ENDCHAR
STARTCHAR y
ENCODING 121
SWIDTH 333 0
DWIDTH 5 0
BBX 4 8 0 -2
BITMAP
90
90
A0
A0
60
40
40
80
ENDCHAR
STARTCHAR z
ENCODING 122
SWIDTH 333 0
DWIDTH 5 0
BBX 4 6 0 0
BITMAP
F0
10
20
40
80
F0
ENDCHAR
STARTCHAR braceleft
ENCODING 123
SWIDTH 200 0
DWIDTH 3 0
BBX 3 10 0 -2
BITMAP
20
40
40
40
80
40
40
40
40
20
ENDCHAR
STARTCHAR bar
ENCODING 124
SWIDTH 200 0
DWIDTH 3 0
BBX 1 10 1 -2
BITMAP
80
80
80
80
80
80
80
80
80
80
ENDCHAR
STARTCHAR braceright
ENCODING 125
SWIDTH 200 0
DWIDTH 3 0
BBX 3 10 0 -2
BITMAP
80
40
40
40
20
40
40
40
40
80
ENDCHAR
STARTCHAR asciitilde
ENCODING 126
SWIDTH 466 0
DWIDTH 7 0
BBX 6 2 0 3
BITMAP
64
98
ENDCHAR
STARTCHAR subset
ENCODING 128
SWIDTH 666 0
DWIDTH 10 0
BBX 7 7 1 1
BITMAP
7E
80
80
80
7E
00
FE
ENDCHAR
STARTCHAR rsub
ENCODING 129
SWIDTH 400 0
DWIDTH 6 0
BBX 4 7 1 1
BITMAP
80
C0
A0
F0
A0
C0
80
ENDCHAR
STARTCHAR bagunion
ENCODING 130
SWIDTH 400 0
DWIDTH 6 0
BBX 5 6 1 0
BITMAP
88
A8
F8
A8
88
70
ENDCHAR
STARTCHAR free131
ENCODING 131
SWIDTH 800 0
DWIDTH 12 0
BBX 10 11 1 0
BITMAP
FBC0
9680
DBC0
9680
97C0
0000
2600
5100
2600
5100
2600
ENDCHAR
STARTCHAR Delta
ENCODING 132
SWIDTH 600 0
DWIDTH 9 0
BBX 7 8 1 0
BITMAP
10
10
28
28
44
44
82
FE
ENDCHAR
STARTCHAR free133
ENCODING 133
SWIDTH 800 0
DWIDTH 12 0
BBX 10 11 1 0
BITMAP
FBC0
9680
DBC0
9680
97C0
0000
2700
5400
2600
5100
2600
ENDCHAR
STARTCHAR Phi
ENCODING 134
SWIDTH 600 0
DWIDTH 9 0
BBX 7 8 1 0
BITMAP
38
10
7C
92
92
7C
10
38
ENDCHAR
STARTCHAR Gamma
ENCODING 135
SWIDTH 400 0
DWIDTH 6 0
BBX 4 7 1 0
BITMAP
F0
80
80
80
80
80
80
ENDCHAR
STARTCHAR EZ
ENCODING 136
SWIDTH 466 0
DWIDTH 7 0
BBX 6 8 0 3
BITMAP
C0
C0
C0
C0
C0
C0
FC
FC
ENDCHAR
STARTCHAR down
ENCODING 137
SWIDTH 466 0
DWIDTH 7 0
BBX 7 9 0 0
BITMAP
82
EE
7C
38
38
10
10
10
10
ENDCHAR
STARTCHAR Theta
ENCODING 138
SWIDTH 733 0
DWIDTH 11 0
BBX 9 9 1 0
BITMAP
3E00
4100
8080
A280
BE80
A280
8080
4100
3E00
ENDCHAR
STARTCHAR dcat
ENCODING 139
SWIDTH 600 0
DWIDTH 9 0
BBX 7 8 1 0
BITMAP
72
8C
04
08
08
08
10
10
ENDCHAR
STARTCHAR Lambda
ENCODING 140
SWIDTH 600 0
DWIDTH 9 0
BBX 7 8 1 0
BITMAP
10
10
28
28
44
44
82
C6
ENDCHAR
STARTCHAR mem
ENCODING 141
SWIDTH 466 0
DWIDTH 7 0
BBX 5 7 1 0
BITMAP
38
40
80
F8
80
40
38
ENDCHAR
STARTCHAR notmem
ENCODING 142
SWIDTH 533 0
DWIDTH 8 0
BBX 6 8 1 0
BITMAP
04
38
48
90
F8
A0
40
B8
ENDCHAR
STARTCHAR bij
ENCODING 143
SWIDTH 866 0
DWIDTH 13 0
BBX 11 5 1 1
BITMAP
8280
4140
3FE0
4140
8280
ENDCHAR
STARTCHAR Pi
ENCODING 144
SWIDTH 733 0
DWIDTH 11 0
BBX 9 8 1 0
BITMAP
FF80
4100
4100
4100
4100
4100
4100
4100
ENDCHAR
STARTCHAR SML
ENCODING 145
SWIDTH 666 0
DWIDTH 10 0
BBX 9 10 0 0
BITMAP
F800
8000
8000
8000
8000
0000
DA00
AA00
8A00
8B80
ENDCHAR
STARTCHAR rres
ENCODING 146
SWIDTH 400 0
DWIDTH 6 0
BBX 4 7 1 1
BITMAP
80
C0
A0
90
A0
C0
80
ENDCHAR
STARTCHAR Sigma
ENCODING 147
SWIDTH 466 0
DWIDTH 7 0
BBX 5 8 1 0
BITMAP
F8
80
40
20
20
40
80
F8
ENDCHAR
STARTCHAR HOLtypequotation
ENCODING 148
SWIDTH 333 0
DWIDTH 5 0
BBX 5 5 0 5
BITMAP
F8
80
88
80
88
ENDCHAR
STARTCHAR Upsilon
ENCODING 149
SWIDTH 666 0
DWIDTH 10 0
BBX 9 8 1 0
BITMAP
4100
B680
1400
0800
0800
0800
0800
1C00
ENDCHAR
STARTCHAR free150
ENCODING 150
SWIDTH 800 0
DWIDTH 12 0
BBX 10 11 1 0
BITMAP
FBC0
9680
DBC0
9680
97C0
0000
2300
5400
3600
1500
2200
ENDCHAR
STARTCHAR Omega
ENCODING 151
SWIDTH 666 0
DWIDTH 10 0
BBX 7 8 1 0
BITMAP
7C
82
82
82
82
44
28
EE
ENDCHAR
STARTCHAR Xi
ENCODING 152
SWIDTH 733 0
DWIDTH 11 0
BBX 9 9 1 0
BITMAP
FF80
8080
0000
2200
3E00
2200
0000
8080
FF80
ENDCHAR
STARTCHAR Psi
ENCODING 153
SWIDTH 866 0
DWIDTH 13 0
BBX 11 10 1 0
BITMAP
0E00
C460
4440
4440
2480
1F00
0400
0400
0400
0E00
ENDCHAR
STARTCHAR emptyset
ENCODING 154
SWIDTH 533 0
DWIDTH 8 0
BBX 6 10 1 0
BITMAP
04
78
8C
94
94
A4
A4
C4
78
80
ENDCHAR
STARTCHAR up
ENCODING 155
SWIDTH 466 0
DWIDTH 7 0
BBX 7 9 0 0
BITMAP
10
10
10
10
38
38
7C
EE
82
ENDCHAR
STARTCHAR BHH
ENCODING 156
SWIDTH 933 0
DWIDTH 14 0
BBX 14 6 0 1
BITMAP
FFFC
FFFC
0000
0000
FFFC
FFFC
ENDCHAR
STARTCHAR SZG
ENCODING 157
SWIDTH 533 0
DWIDTH 8 0
BBX 8 9 0 -2
BITMAP
FF
FF
C0
C0
FF
FF
C0
C0
C0
ENDCHAR
STARTCHAR finj
ENCODING 158
SWIDTH 933 0
DWIDTH 14 0
BBX 14 5 0 1
BITMAP
8A50
4A28
3FFC
4A28
8A50
ENDCHAR
STARTCHAR ffun
ENCODING 159
SWIDTH 933 0
DWIDTH 14 0
BBX 14 5 0 1
BITMAP
0A50
0A28
FFFC
0A28
0A50
ENDCHAR
STARTCHAR psubset
ENCODING 160
SWIDTH 600 0
DWIDTH 9 0
BBX 7 5 1 3
BITMAP
7E
80
80
80
7E
ENDCHAR
STARTCHAR intersect
ENCODING 161
SWIDTH 466 0
DWIDTH 7 0
BBX 5 7 1 0
BITMAP
70
88
88
88
88
88
88
ENDCHAR
STARTCHAR rseq
ENCODING 162
SWIDTH 333 0
DWIDTH 5 0
BBX 4 9 0 0
BITMAP
80
40
40
20
10
20
40
40
80
ENDCHAR
STARTCHAR negate
ENCODING 163
SWIDTH 600 0
DWIDTH 9 0
BBX 9 9 1 0
BITMAP
FF80
C180
A280
9480
8880
9480
A280
C180
FF80
ENDCHAR
STARTCHAR equiv
ENCODING 164
SWIDTH 1000 0
DWIDTH 15 0
BBX 13 7 1 0
BITMAP
1040
2020
7FF0
8008
7FF0
2020
1040
ENDCHAR
STARTCHAR dintersect
ENCODING 165
SWIDTH 600 0
DWIDTH 9 0
BBX 7 8 1 0
BITMAP
38
7C
C6
C6
C6
C6
C6
C6
ENDCHAR
STARTCHAR def
ENCODING 166
SWIDTH 466 0
DWIDTH 7 0
BBX 7 6 1 2
BITMAP
10
28
44
FE
00
FE
ENDCHAR
STARTCHAR lseq
ENCODING 167
SWIDTH 333 0
DWIDTH 5 0
BBX 4 9 1 0
BITMAP
10
20
20
40
80
40
20
20
10
ENDCHAR
STARTCHAR lrelimg
ENCODING 168
SWIDTH 266 0
DWIDTH 4 0
BBX 4 12 0 -2
BITMAP
10
20
60
60
A0
A0
A0
A0
60
60
20
10
ENDCHAR
STARTCHAR rrelimg
ENCODING 169
SWIDTH 266 0
DWIDTH 4 0
BBX 4 12 0 -2
BITMAP
80
40
60
60
50
50
50
50
60
60
40
80
ENDCHAR
STARTCHAR rel
ENCODING 170
SWIDTH 800 0
DWIDTH 12 0
BBX 11 5 1 1
BITMAP
2080
4040
FFE0
4040
2080
ENDCHAR
STARTCHAR overwrite
ENCODING 171
SWIDTH 733 0
DWIDTH 11 0
BBX 9 9 1 0
BITMAP
3E00
4900
8880
8880
FF80
8880
8880
4900
3E00
ENDCHAR
STARTCHAR HOLtermquotation
ENCODING 172
SWIDTH 333 0
DWIDTH 5 0
BBX 5 5 0 5
BITMAP
F8
80
80
80
80
ENDCHAR
STARTCHAR fun
ENCODING 173
SWIDTH 866 0
DWIDTH 13 0
BBX 11 5 1 1
BITMAP
0080
0040
FFE0
0040
0080
ENDCHAR
STARTCHAR endquotation
ENCODING 174
SWIDTH 333 0
DWIDTH 5 0
BBX 5 5 0 5
BITMAP
F8
08
08
08
08
ENDCHAR
STARTCHAR bbR
ENCODING 175
SWIDTH 600 0
DWIDTH 9 0
BBX 7 8 1 0
BITMAP
FC
A2
A2
A4
FC
A2
A2
A2
ENDCHAR
STARTCHAR EFT
ENCODING 176
SWIDTH 533 0
DWIDTH 8 0
BBX 7 7 1 0
BITMAP
FE
FE
FE
FE
FE
FE
FE
ENDCHAR
STARTCHAR and
ENCODING 177
SWIDTH 466 0
DWIDTH 7 0
BBX 5 6 1 0
BITMAP
20
20
50
50
88
88
ENDCHAR
STARTCHAR or
ENCODING 178
SWIDTH 466 0
DWIDTH 7 0
BBX 5 6 1 0
BITMAP
88
88
50
50
20
20
ENDCHAR
STARTCHAR not
ENCODING 179
SWIDTH 533 0
DWIDTH 8 0
BBX 6 3 1 2
BITMAP
FC
04
04
ENDCHAR
STARTCHAR implies
ENCODING 180
SWIDTH 866 0
DWIDTH 13 0
BBX 11 7 1 0
BITMAP
0100
0080
FFC0
0020
FFC0
0080
0100
ENDCHAR
STARTCHAR forall
ENCODING 181
SWIDTH 600 0
DWIDTH 9 0
BBX 7 8 1 0
BITMAP
82
82
7C
44
28
28
10
10
ENDCHAR
STARTCHAR exists
ENCODING 182
SWIDTH 466 0
DWIDTH 7 0
BBX 5 8 1 0
BITMAP
F8
08
08
F8
08
08
08
F8
ENDCHAR
STARTCHAR spot
ENCODING 183
SWIDTH 400 0
DWIDTH 6 0
BBX 4 4 1 2
BITMAP
60
F0
F0
60
ENDCHAR
STARTCHAR times
ENCODING 184
SWIDTH 600 0
DWIDTH 9 0
BBX 7 7 1 0
BITMAP
82
44
28
10
28
44
82
ENDCHAR
STARTCHAR SFT
ENCODING 185
SWIDTH 533 0
DWIDTH 8 0
BBX 8 10 0 0
BITMAP
3C
42
99
A5
99
85
A5
99
42
3C
ENDCHAR
STARTCHAR bigcolon
ENCODING 186
SWIDTH 466 0
DWIDTH 7 0
BBX 5 11 1 0
BITMAP
70
A8
F8
A8
70
00
70
A8
F8
A8
70
ENDCHAR
STARTCHAR fcompose
ENCODING 187
SWIDTH 400 0
DWIDTH 6 0
BBX 4 11 2 -2
BITMAP
60
90
90
60
00
60
90
90
60
20
40
ENDCHAR
STARTCHAR leq
ENCODING 188
SWIDTH 466 0
DWIDTH 7 0
BBX 5 8 1 0
BITMAP
08
10
20
40
A0
50
28
10
ENDCHAR
STARTCHAR neq
ENCODING 189
SWIDTH 666 0
DWIDTH 10 0
BBX 8 7 1 0
BITMAP
02
04
FF
08
FF
20
40
ENDCHAR
STARTCHAR geq
ENCODING 190
SWIDTH 466 0
DWIDTH 7 0
BBX 5 8 1 0
BITMAP
80
40
20
10
28
50
A0
40
ENDCHAR
STARTCHAR free191
ENCODING 191
SWIDTH 800 0
DWIDTH 12 0
BBX 10 11 1 0
BITMAP
FBC0
9680
DBC0
9680
97C0
0000
4700
4400
7700
5400
6400
ENDCHAR
STARTCHAR union
ENCODING 192
SWIDTH 466 0
DWIDTH 7 0
BBX 5 7 1 1
BITMAP
88
88
88
88
88
88
70
ENDCHAR
STARTCHAR alpha
ENCODING 193
SWIDTH 466 0
DWIDTH 7 0
BBX 5 5 1 0
BITMAP
68
90
90
90
68
ENDCHAR
STARTCHAR beta
ENCODING 194
SWIDTH 400 0
DWIDTH 6 0
BBX 4 9 1 -2
BITMAP
60
90
90
A0
90
90
F0
80
80
ENDCHAR
STARTCHAR sqsubseteq
ENCODING 195
SWIDTH 600 0
DWIDTH 9 0
BBX 7 7 1 1
BITMAP
FE
80
80
80
FE
00
FE
ENDCHAR
STARTCHAR delta
ENCODING 196
SWIDTH 400 0
DWIDTH 6 0
BBX 4 7 1 0
BITMAP
F0
40
60
90
90
90
60
ENDCHAR
STARTCHAR select
ENCODING 197
SWIDTH 400 0
DWIDTH 6 0
BBX 4 5 1 0
BITMAP
70
80
60
80
70
ENDCHAR
STARTCHAR phi
ENCODING 198
SWIDTH 466 0
DWIDTH 7 0
BBX 5 7 1 -2
BITMAP
B0
A8
A8
A8
70
20
20
ENDCHAR
STARTCHAR gamma
ENCODING 199
SWIDTH 466 0
DWIDTH 7 0
BBX 5 8 1 -2
BITMAP
88
50
50
20
20
20
40
40
ENDCHAR
STARTCHAR eta
ENCODING 200
SWIDTH 466 0
DWIDTH 7 0
BBX 5 7 1 -2
BITMAP
F0
48
48
48
48
08
08
ENDCHAR
STARTCHAR iota
ENCODING 201
SWIDTH 266 0
DWIDTH 4 0
BBX 2 5 1 0
BITMAP
80
80
80
80
C0
ENDCHAR
STARTCHAR theta
ENCODING 202
SWIDTH 400 0
DWIDTH 6 0
BBX 4 7 1 0
BITMAP
60
90
90
F0
90
90
60
ENDCHAR
STARTCHAR kappa
ENCODING 203
SWIDTH 466 0
DWIDTH 7 0
BBX 6 6 0 0
BITMAP
C8
50
60
60
54
48
ENDCHAR
STARTCHAR fn
ENCODING 204
SWIDTH 400 0
DWIDTH 6 0
BBX 5 8 0 0
BITMAP
40
20
20
20
20
50
50
88
ENDCHAR
STARTCHAR mu
ENCODING 205
SWIDTH 466 0
DWIDTH 7 0
BBX 5 7 1 -2
BITMAP
90
90
90
90
F8
80
80
ENDCHAR
STARTCHAR nu
ENCODING 206
SWIDTH 400 0
DWIDTH 6 0
BBX 5 5 0 0
BITMAP
88
48
48
50
60
ENDCHAR
STARTCHAR psurj
ENCODING 207
SWIDTH 933 0
DWIDTH 14 0
BBX 12 5 1 1
BITMAP
0940
08A0
FFF0
08A0
0940
ENDCHAR
STARTCHAR pi
ENCODING 208
SWIDTH 533 0
DWIDTH 8 0
BBX 7 5 0 0
BITMAP
7E
A4
24
24
24
ENDCHAR
STARTCHAR chi
ENCODING 209
SWIDTH 666 0
DWIDTH 10 0
BBX 9 8 0 -2
BITMAP
C200
2400
1400
0800
0800
1400
1200
2180
ENDCHAR
STARTCHAR rho
ENCODING 210
SWIDTH 400 0
DWIDTH 6 0
BBX 4 8 1 -2
BITMAP
60
90
90
90
E0
80
80
80
ENDCHAR
STARTCHAR sigma
ENCODING 211
SWIDTH 466 0
DWIDTH 7 0
BBX 5 5 1 0
BITMAP
78
90
90
90
60
ENDCHAR
STARTCHAR tau
ENCODING 212
SWIDTH 466 0
DWIDTH 7 0
BBX 6 5 0 0
BITMAP
7C
90
10
10
10
ENDCHAR
STARTCHAR upsilon
ENCODING 213
SWIDTH 400 0
DWIDTH 6 0
BBX 5 5 0 0
BITMAP
C8
48
48
48
30
ENDCHAR
STARTCHAR free214
ENCODING 214
SWIDTH 800 0
DWIDTH 12 0
BBX 10 11 1 0
BITMAP
FBC0
9680
DBC0
9680
97C0
0000
1300
1400
3600
5500
3600
ENDCHAR
STARTCHAR omega
ENCODING 215
SWIDTH 800 0
DWIDTH 12 0
BBX 9 5 1 0
BITMAP
4100
8080
8880
8880
7700
ENDCHAR
STARTCHAR xi
ENCODING 216
SWIDTH 400 0
DWIDTH 6 0
BBX 4 9 1 -2
BITMAP
F0
80
40
F0
80
80
F0
10
20
ENDCHAR
STARTCHAR psi
ENCODING 217
SWIDTH 466 0
DWIDTH 7 0
BBX 6 8 0 -2
BITMAP
D4
54
54
54
38
10
10
10
ENDCHAR
STARTCHAR zeta
ENCODING 218
SWIDTH 400 0
DWIDTH 6 0
BBX 4 11 1 -2
BITMAP
80
70
30
40
80
80
80
60
30
10
20
ENDCHAR
STARTCHAR SX
ENCODING 219
SWIDTH 533 0
DWIDTH 8 0
BBX 7 12 1 -2
BITMAP
E0
80
80
80
80
80
80
A2
94
E8
14
22
ENDCHAR
STARTCHAR BV
ENCODING 220
SWIDTH 266 0
DWIDTH 4 0
BBX 2 13 0 -2
BITMAP
C0
C0
C0
C0
C0
C0
C0
C0
C0
C0
C0
C0
C0
ENDCHAR
STARTCHAR EX
ENCODING 221
SWIDTH 533 0
DWIDTH 8 0
BBX 7 12 0 -2
BITMAP
0E
02
02
02
02
02
02
8A
52
2E
50
88
ENDCHAR
STARTCHAR dunion
ENCODING 222
SWIDTH 600 0
DWIDTH 9 0
BBX 7 8 1 0
BITMAP
C6
C6
C6
C6
C6
C6
7C
38
ENDCHAR
STARTCHAR pfun
ENCODING 223
SWIDTH 800 0
DWIDTH 12 0
BBX 10 5 1 1
BITMAP
0900
0880
FFC0
0880
0900
ENDCHAR
STARTCHAR inj
ENCODING 224
SWIDTH 1000 0
DWIDTH 15 0
BBX 13 5 1 1
BITMAP
8020
4010
3FF8
4010
8020
ENDCHAR
STARTCHAR dsub
ENCODING 225
SWIDTH 333 0
DWIDTH 5 0
BBX 4 7 0 1
BITMAP
10
30
50
F0
50
30
10
ENDCHAR
STARTCHAR bottom
ENCODING 226
SWIDTH 600 0
DWIDTH 9 0
BBX 7 8 1 0
BITMAP
10
10
10
10
10
10
10
FE
ENDCHAR
STARTCHAR Leftarrow
ENCODING 227
SWIDTH 866 0
DWIDTH 13 0
BBX 11 7 1 0
BITMAP
1000
2000
7FE0
8000
7FE0
2000
1000
ENDCHAR
STARTCHAR psupset
ENCODING 228
SWIDTH 600 0
DWIDTH 9 0
BBX 7 5 1 3
BITMAP
FC
02
02
02
FC
ENDCHAR
STARTCHAR supset
ENCODING 229
SWIDTH 600 0
DWIDTH 9 0
BBX 7 7 1 1
BITMAP
FC
02
02
02
FC
00
FE
ENDCHAR
STARTCHAR bbF
ENCODING 230
SWIDTH 600 0
DWIDTH 9 0
BBX 7 8 1 0
BITMAP
FE
A0
A0
FC
A0
A0
A0
A0
ENDCHAR
STARTCHAR uptext
ENCODING 231
SWIDTH 533 0
DWIDTH 8 0
BBX 7 7 0 0
BITMAP
1E
06
0A
12
20
40
80
ENDCHAR
STARTCHAR dntext
ENCODING 232
SWIDTH 533 0
DWIDTH 8 0
BBX 7 7 0 0
BITMAP
80
40
20
12
0A
06
1E
ENDCHAR
STARTCHAR identical
ENCODING 233
SWIDTH 533 0
DWIDTH 8 0
BBX 8 5 0 2
BITMAP
FF
00
FF
00
FF
ENDCHAR
STARTCHAR cantext
ENCODING 234
SWIDTH 333 0
DWIDTH 5 0
BBX 5 8 0 0
BITMAP
20
70
A8
20
20
A8
70
20
ENDCHAR
STARTCHAR cat
ENCODING 235
SWIDTH 466 0
DWIDTH 7 0
BBX 5 2 1 6
BITMAP
70
88
ENDCHAR
STARTCHAR free236
ENCODING 236
SWIDTH 800 0
DWIDTH 12 0
BBX 10 11 1 0
BITMAP
FBC0
9680
DBC0
9680
97C0
0000
7700
4400
7400
4400
7700
ENDCHAR
STARTCHAR map
ENCODING 237
SWIDTH 866 0
DWIDTH 13 0
BBX 11 5 1 1
BITMAP
8080
8040
FFE0
8040
8080
ENDCHAR
STARTCHAR bbN
ENCODING 238
SWIDTH 666 0
DWIDTH 10 0
BBX 8 8 1 0
BITMAP
F1
D1
A9
A9
95
95
8B
8F
ENDCHAR
STARTCHAR surj
ENCODING 239
SWIDTH 866 0
DWIDTH 13 0
BBX 11 5 1 1
BITMAP
0280
0140
FFE0
0140
0280
ENDCHAR
STARTCHAR bbP
ENCODING 240
SWIDTH 600 0
DWIDTH 9 0
BBX 7 8 1 0
BITMAP
FC
A2
A2
A4
F8
A0
A0
A0
ENDCHAR
STARTCHAR SZT
ENCODING 241
SWIDTH 400 0
DWIDTH 6 0
BBX 5 10 1 0
BITMAP
F8
80
80
80
80
00
F0
20
40
F0
ENDCHAR
STARTCHAR dres
ENCODING 242
SWIDTH 400 0
DWIDTH 6 0
BBX 4 7 1 1
BITMAP
10
30
50
90
50
30
10
ENDCHAR
STARTCHAR free243
ENCODING 243
SWIDTH 800 0
DWIDTH 12 0
BBX 10 11 1 0
BITMAP
FBC0
9680
DBC0
9680
97C0
0000
7600
4100
7600
4100
4600
ENDCHAR
STARTCHAR thm
ENCODING 244
SWIDTH 400 0
DWIDTH 6 0
BBX 4 7 1 0
BITMAP
80
80
80
F0
80
80
80
ENDCHAR
STARTCHAR free245
ENCODING 245
SWIDTH 800 0
DWIDTH 12 0
BBX 10 11 1 0
BITMAP
FBC0
9680
DBC0
9680
97C0
0000
7700
4400
7600
4100
4600
ENDCHAR
STARTCHAR free246
ENCODING 246
SWIDTH 800 0
DWIDTH 12 0
BBX 10 11 1 0
BITMAP
FBC0
9680
DBC0
9680
97C0
0000
7300
4400
7600
4500
4200
ENDCHAR
STARTCHAR BT
ENCODING 247
SWIDTH 933 0
DWIDTH 14 0
BBX 14 13 0 -2
BITMAP
C000
C000
C000
C000
C000
C000
FFFC
FFFC
C000
C000
C000
C000
C000
ENDCHAR
STARTCHAR free248
ENCODING 248
SWIDTH 800 0
DWIDTH 12 0
BBX 10 11 1 0
BITMAP
FBC0
9680
DBC0
9680
97C0
0000
7200
4500
7200
4500
4200
ENDCHAR
STARTCHAR filter
ENCODING 249
SWIDTH 333 0
DWIDTH 5 0
BBX 3 8 1 0
BITMAP
80
C0
A0
80
80
80
80
80
ENDCHAR
STARTCHAR bbZ
ENCODING 250
SWIDTH 600 0
DWIDTH 9 0
BBX 7 8 1 0
BITMAP
FE
0A
14
28
28
50
A0
FE
ENDCHAR
STARTCHAR lbag
ENCODING 251
SWIDTH 333 0
DWIDTH 5 0
BBX 4 10 1 -2
BITMAP
F0
A0
A0
A0
A0
A0
A0
A0
A0
F0
ENDCHAR
STARTCHAR BH
ENCODING 252
SWIDTH 933 0
DWIDTH 14 0
BBX 14 2 0 3
BITMAP
FFFC
FFFC
ENDCHAR
STARTCHAR rbag
ENCODING 253
SWIDTH 333 0
DWIDTH 5 0
BBX 4 10 0 -2
BITMAP
F0
50
50
50
50
50
50
50
50
F0
ENDCHAR
STARTCHAR pinj
ENCODING 254
SWIDTH 933 0
DWIDTH 14 0
BBX 12 5 1 1
BITMAP
8440
4420
3FF0
4420
8440
ENDCHAR
STARTCHAR SZS
ENCODING 255
SWIDTH 400 0
DWIDTH 6 0
BBX 6 7 0 -2
BITMAP
FC
FC
C0
C0
C0
C0
C0
ENDCHAR
ENDFONT
